<?xml version="1.0" encoding="UTF-8" standalone="no"?>
<svg
   xmlns:dc="http://purl.org/dc/elements/1.1/"
   xmlns:cc="http://creativecommons.org/ns#"
   xmlns:rdf="http://www.w3.org/1999/02/22-rdf-syntax-ns#"
   xmlns:svg="http://www.w3.org/2000/svg"
   xmlns="http://www.w3.org/2000/svg"
   xmlns:sodipodi="http://sodipodi.sourceforge.net/DTD/sodipodi-0.dtd"
   xmlns:inkscape="http://www.inkscape.org/namespaces/inkscape"
   aria-hidden="true"
   focusable="false"
   data-prefix="fas"
   data-icon="file-pdf"
   class="svg-inline--fa fa-file-pdf fa-w-12"
   role="img"
   viewBox="0 0 384 512"
   version="1.1"
   id="svg4"
   sodipodi:docname="file-pdf-solid.svg"
   inkscape:version="0.92.5 (2060ec1f9f, 2020-04-08)">
  <metadata
     id="metadata10">
    <rdf:RDF>
      <cc:Work
         rdf:about="">
        <dc:format>image/svg+xml</dc:format>
        <dc:type
           rdf:resource="http://purl.org/dc/dcmitype/StillImage" />
      </cc:Work>
    </rdf:RDF>
  </metadata>
  <defs
     id="defs8" />
  <sodipodi:namedview
     pagecolor="#ffffff"
     bordercolor="#666666"
     borderopacity="1"
     objecttolerance="10"
     gridtolerance="10"
     guidetolerance="10"
     inkscape:pageopacity="0"
     inkscape:pageshadow="2"
     inkscape:window-width="816"
     inkscape:window-height="480"
     id="namedview6"
     showgrid="false"
     inkscape:zoom="3.6875"
     inkscape:cx="400.00039"
     inkscape:cy="110.63037"
     inkscape:window-x="2374"
     inkscape:window-y="173"
     inkscape:window-maximized="0"
     inkscape:current-layer="svg4" />
  <path
     d="m 352.02938,471.51864 c -0.79096,-2.53107 -0.77514,-7.4192 -0.31639,-7.4192 1.32882,0 1.20226,5.83728 0.31639,7.4192 z m -0.26893,7.46667 c -1.21808,3.19548 -2.73672,6.84972 -4.49265,9.91864 2.89491,-1.10734 6.16949,-2.7209 9.95028,-3.4644 -2.00904,-1.51865 -3.93898,-3.7017 -5.45763,-6.45424 z m -14.88587,19.74237 c 0,0.12656 2.08813,-0.85423 5.5209,-6.35932 -1.05989,0.99661 -4.60339,3.87571 -5.5209,6.35932 z m 25.6113,-42.4113 H 384 v 51.88701 C 384,510.30734 382.30734,512 380.20339,512 h -53.15254 c -2.10396,0 -3.79661,-1.69266 -3.79661,-3.79661 v -73.40113 c 0,-2.10395 1.69265,-3.79661 3.79661,-3.79661 h 31.63842 v 21.51412 c 0,2.08814 1.70847,3.79661 3.79661,3.79661 z m -1.26554,27.17741 c -3.16384,-1.92995 -5.2678,-4.58758 -6.7548,-8.51074 0.71186,-2.92655 1.83502,-7.37175 0.98079,-10.15593 -0.74351,-4.65085 -6.70735,-4.19209 -7.56158,-1.07571 -0.79096,2.89492 -0.0633,6.97627 1.28135,12.18079 -1.83503,4.36611 -4.54011,10.21921 -6.45424,13.57288 -0.0158,0 -0.0158,0.0158 -0.0316,0.0158 -4.28701,2.19887 -11.64294,7.03955 -8.62147,10.75707 0.88587,1.09152 2.53107,1.58192 3.40113,1.58192 2.83164,0 5.64745,-2.84746 9.66553,-9.77627 4.08136,-1.34464 8.5582,-3.02147 12.49718,-3.67006 3.43277,1.86667 7.45085,3.08475 10.12429,3.08475 4.61921,0 4.9356,-5.06215 3.11639,-6.86554 -2.19887,-2.15141 -8.58983,-1.53446 -11.64294,-1.13898 z m 21.67232,-35.87797 -15.50283,-15.50283 c -0.71186,-0.71186 -1.67684,-1.10734 -2.68927,-1.10734 h -0.94915 v 20.24859 H 384 v -0.96497 c 0,-0.99661 -0.39548,-1.96159 -1.10734,-2.67345 z m -11.72204,40.38644 c 0.64859,-0.42712 -0.39548,-1.88249 -6.77062,-1.42373 5.86893,2.49944 6.77062,1.42373 6.77062,1.42373 z"
     id="path2"
     style="fill:#548a62;fill-opacity:1;fill-rule:evenodd;stroke-width:0.15819208"
     inkscape:export-xdpi="96"
     inkscape:export-ydpi="96"
     inkscape:connector-curvature="0" />
</svg>
