<?xml version="1.0" encoding="UTF-8" standalone="no"?>
<svg
   xmlns:dc="http://purl.org/dc/elements/1.1/"
   xmlns:cc="http://creativecommons.org/ns#"
   xmlns:rdf="http://www.w3.org/1999/02/22-rdf-syntax-ns#"
   xmlns:svg="http://www.w3.org/2000/svg"
   xmlns="http://www.w3.org/2000/svg"
   id="svg8"
   version="1.1"
   preserveAspectRatio="none"
   viewBox="0 0 1000 100">
  <metadata
     id="metadata14">
    <rdf:RDF>
      <cc:Work
         rdf:about="">
        <dc:format>image/svg+xml</dc:format>
        <dc:type
           rdf:resource="http://purl.org/dc/dcmitype/StillImage" />
        <dc:title></dc:title>
      </cc:Work>
    </rdf:RDF>
  </metadata>
  <defs
     id="defs12" />
  <path
     style="opacity:0.33000004;fill:#ffffff"
     id="path2"
     d="m 527,32.69832 c 203.9,-88.3 263.1,34 320.3,0 86.7,-51.8 152.7,7.6 152.7,7.6 v 59.7 l -1000,0 v -59.7 c 0,0 62.1,-26.1 94.9,-29.3 32.8,-3.3 62.8,12.3 75.8,22.1 23.3,17.3 84,58.2 134.4,62.2 50.4,4 202.5,-54.3 221.9,-62.6 z"
     class="elementor-shape-fill" />
  <path
     style="opacity:0.66000001;fill:#ffffff"
     id="path4"
     d="m 265.99999,32.698315 c 45.5,0 77.2,23.2 129.1,39.1 28.6,8.7 150.30001,10.1 254,-39.1 103.7,-49.199995 91.7,34.4 149.2,0 86,-50.999995 201.7,27.5 201.7,27.5 v 39.8 L 0,99.998315 v -36.5 c 0,0 28.19999,18.5 92.09999,18.5 97.7,-0.1 132.2,-49.3 173.9,-49.3 z"
     class="elementor-shape-fill" />
  <path
     style="fill:#ffffff"
     id="path6"
     d="m 233.9,71.09832 c 200,57.5 266,-65.5 395.1,-19.5 129,46.6 129,43 186.2,27.8 56.8,-15.2 52.5,-24.3 94.9,-31.9 61.3,-11.2 89.9,52.5 89.9,52.5 l -1000,0 c 0,0 9.9,-40.9 83.6,-48.1 73.7,-7.2 86.8,1.1 150.3,19.2 z"
     class="elementor-shape-fill" />
</svg>
